<svg xmlns="http://www.w3.org/2000/svg" viewBox="0 0 1155.313 806.381"><defs><style>.a{fill:#71624b;}.b{fill:#48413a;}.c{fill:#7c5528;}.d{fill:#231f20;}.e{fill:#8b6c4e;}.f,.g{fill:#593d1f;}.f{opacity:0.25;}.h{fill:#00303e;}.i{fill:#fff;}.j{fill:#e0e1e2;}.k{fill:#95979a;}.l{fill:#808283;}.m{fill:#231811;}.n{fill:#5c4024;}.o{fill:#2c1f14;}</style></defs><g transform="translate(346.572 558.378)"><path class="a" d="M396.411,81.36c1.176,17.638-78.782,41.155-179.905,50.562S31.9,135.449,29.546,117.811s78.782-41.155,179.905-50.562C310.574,56.667,394.059,63.722,396.411,81.36Z" transform="translate(-29.496 111.631)"/><path class="b" d="M360.051,78.014c1.176,15.286-70.551,34.1-162.267,43.506-90.541,9.407-165.8,3.528-166.971-10.583-1.176-15.286,70.551-34.1,162.267-43.506C283.621,58.024,357.7,62.728,360.051,78.014Z" transform="translate(-15.477 114.977)"/><g transform="translate(57.689 69.526)"><path class="c" d="M49.667,99.658S24.974,80.845,39.085,53.8c0,0-1.176,21.165,8.231,23.517,7.055,2.352,7.055,1.176,11.759,4.7C60.25,83.2,53.195,91.427,49.667,99.658Z" transform="translate(-30.876 -49.097)"/><path class="d" d="M53.193,107.489c-1.176,0-1.176,0-2.352-1.176,0,0-27.045-19.99-11.759-50.562,1.176-1.176,2.352-2.352,4.7-2.352,1.176,0,2.352,2.352,2.352,3.528,0,5.879,0,18.814,5.879,19.989,1.176,0,2.352,1.176,3.528,1.176,3.527,1.176,4.7,1.176,9.407,4.7,1.176,0,1.176,1.176,1.176,2.352s0,2.352-1.176,2.352a138.346,138.346,0,0,0-9.407,15.286c1.176,3.528,0,4.7-2.352,4.7Zm-9.407-28.22a35.421,35.421,0,0,0,9.407,18.814c2.352-3.528,3.528-7.055,5.879-9.407A4.32,4.32,0,0,0,55.545,87.5c-1.176,0-2.352-1.176-3.528-1.176C47.314,85.148,44.962,82.8,43.786,79.269Z" transform="translate(-34.402 -53.4)"/></g><path class="c" d="M132.2,51.041s10.583,21.165-44.682,72.9c0,0-50.562,35.276-14.11,61.144,0,0-12.934,14.11-8.231,23.517l-8.231,15.286S29.9,232.122,34.6,246.232s17.638,15.286,27.045,8.231c0,0,64.672,5.879,94.068-25.869,0,0,12.934-15.286,32.924,1.176,0,0,16.462,5.879,43.507-3.528,28.22-9.407,31.748-2.352,30.572-8.231a15.833,15.833,0,0,0-11.759-15.286c-8.231-1.176-31.748-44.682-30.572-62.32s-12.934-65.848-12.934-65.848S207.453,38.106,132.2,51.041Z" transform="translate(19.536 -39.131)"/><path class="e" d="M114.979,87.349c-3.528-18.814-21.165-31.748-41.155-29.4C53.834,61.48,40.9,79.118,43.252,99.107c3.528,18.814,21.165,31.748,41.155,29.4C104.4,124.976,118.506,106.162,114.979,87.349Z" transform="translate(115.538 62.135)"/><path class="f" d="M63.548,64.683S65.9,62.331,70.6,54.1c-5.879,22.341,3.528,37.627-9.407,50.562-14.11,12.934-3.528,27.045,2.352,31.748,7.055,4.7,8.231,10.583,8.231,10.583s15.286-3.528,21.165-1.176l-4.7,17.638s-10.583-7.055-19.989-1.176c0,0-8.231-18.814-22.341-27.045,0,0-9.407-14.11,4.7-30.572C49.438,103.486,63.548,81.145,63.548,64.683Z" transform="translate(114.055 23.657)"/><path class="g" d="M98.527,58.048c2.352-4.7,0-7.055-3.528-4.7,0,0-42.331,37.627-48.21,41.155s-22.341,23.517,3.528,45.858c0,0-10.583,14.11-8.231,21.165,0,0,11.759-7.055,17.638-4.7,0,0,11.759-17.638,16.462-17.638,0,0-21.165-7.055-23.517-23.517C50.317,100.378,78.538,87.444,98.527,58.048Z" transform="translate(42.625 5.599)"/><path class="d" d="M56.448,274.577c-10.583,0-18.814-7.055-22.341-17.638-1.176-4.7-1.176-9.407,1.176-14.11,4.7-9.407,17.638-14.11,23.517-16.462l5.879-9.407c-1.176-8.231,2.352-16.462,5.879-22.341-7.055-7.055-10.583-14.11-10.583-23.517,0-22.341,25.869-42.331,30.572-45.858,48.21-45.858,42.331-64.672,42.331-64.672l-4.7-9.407,10.583-1.176c35.276-5.879,59.968-1.176,72.9,11.759,8.231,8.231,9.407,16.462,9.407,19.989,2.352,8.231,16.462,48.21,15.286,67.024-1.176,14.11,18.814,49.386,24.693,54.089,9.407,2.352,16.462,10.583,17.638,21.165a14.486,14.486,0,0,1-2.352,8.231c-2.352,3.528-5.879,3.528-9.407,3.528s-10.583,0-24.693,4.7c-11.758,3.528-22.341,5.879-31.748,5.879h0c-10.583,0-15.286-2.352-16.462-2.352h-1.176l-1.176-1.176c-4.7-3.528-9.407-5.879-12.934-5.879a14.084,14.084,0,0,0-9.407,3.528c-23.517,24.693-65.848,28.22-88.189,28.22H70.558A19.473,19.473,0,0,1,56.448,274.577Zm91.716-209.3c0,11.758-8.231,35.275-48.21,72.9h0c-7.055,4.7-24.693,19.989-24.693,32.924,0,5.879,3.528,10.583,10.583,15.286l7.055,4.7-5.879,5.879c-4.7,4.7-8.231,12.934-7.055,15.286l1.176,3.528L69.382,236.95l-3.528,1.176c-5.879,1.176-15.286,5.879-17.638,10.583v2.352c1.176,4.7,4.7,7.055,8.231,7.055a21.8,21.8,0,0,0,8.231-2.352l2.352-1.176h14.11c16.462,0,56.441-2.352,77.606-23.517,0,0,8.231-9.407,19.989-9.407,7.055,0,14.11,2.352,21.165,8.231,1.176,0,4.7,1.176,10.583,1.176h0a88.289,88.289,0,0,0,28.22-4.7c11.758-3.528,18.814-4.7,24.693-4.7-1.176-2.352-2.352-3.528-4.7-3.528-12.934-2.352-38.8-48.21-36.451-70.551,1.176-12.934-9.407-48.21-14.11-61.144V84.089c0-1.176-1.176-19.989-39.979-19.989C161.1,64.1,155.219,64.1,148.164,65.276Z" transform="translate(11.801 -47.487)"/><path class="c" d="M115.157,51s-19.99,43.507-24.693,63.5c-4.7,18.814-8.231,42.331-8.231,42.331s-16.462,9.407-21.165,14.11c0,0-19.989,5.879-23.517,19.989s-3.528,37.627,19.989,39.979c0,0,4.7,0,5.879-3.528,0,0,18.814,18.814,31.748,1.176,0,0,16.462,14.11,29.4-5.879,0,0,3.528,11.759,11.759,1.176,0,0,14.11-14.11,0-36.451l-11.759-16.462s-12.934-18.814,0-34.1,7.055-37.627,7.055-37.627" transform="translate(38.93 -9.694)"/><path class="g" d="M129.847,59.983S94.571,143.468,92.22,184.623c0,0-15.286,3.528-21.165,15.286-1.176,1.176-2.352,2.352-3.528,2.352-5.879,1.176-18.814,4.7-17.638,21.165a11.718,11.718,0,0,0,1.176,4.7c0,1.176,2.352,2.352,2.352,0a8.915,8.915,0,0,1,2.352-4.7c1.176-1.176,2.352-2.352,3.528,0,2.352,5.879,9.407,15.286,21.165,14.11a20,20,0,0,0,10.583-7.055,2.2,2.2,0,0,1,3.528,0c2.352,2.352,4.7,5.879,8.231,7.055s9.407,0,11.759-2.352,4.7-7.055,5.879-14.11c0-1.176,2.352-7.055,7.055-2.352,1.176,1.176,1.176,2.352,2.352,3.528,0,0,2.352-18.814-7.055-30.572,0,0,32.924,14.11,9.407,52.913,0,0-4.7,2.352-7.055-4.7,0,0-10.583,21.165-27.045,9.407,0,0-18.814,10.583-30.572-2.352,0,0-11.758,8.231-21.165-2.352,0,0-27.045-36.451,5.879-52.913l9.407-4.7S72.23,174.04,81.637,171.688c0,0,8.231-92.892,37.627-122.288Z" transform="translate(39.525 -26.908)"/><g transform="translate(70.601 24.844)"><path class="d" d="M87.237,127.206c-7.055,23.517-7.055,32.924-4.7,41.155-5.879,1.176-16.462,7.055-18.814,14.11-5.879,2.352-21.165,7.055-27.045,22.341-1.176,3.528-1.176,7.055-1.176,14.11a41.555,41.555,0,0,0,7.055,22.341c4.7,7.055,8.231,11.758,17.638,11.758a37.591,37.591,0,0,0,8.231-1.176c4.7,3.528,11.758,7.055,19.989,5.879,3.528,0,8.231-1.176,12.934-5.879,3.528,2.352,9.407,3.528,15.286,2.352,4.7-1.176,9.407-2.352,12.934-5.879a4.32,4.32,0,0,0,3.528,1.176c3.527,0,8.231,0,12.934-5.879,3.527-3.528,8.231-11.758,8.231-21.165,0-7.055-2.352-15.286-8.231-24.693h0s-5.879-12.934-14.11-16.462-7.055-8.231-5.879-12.934c1.176-8.231,5.879-12.934,9.407-17.638,8.231-10.583,10.583-16.462,10.583-25.869,0-7.055,5.879-23.517,5.879-24.693l-15.286,14.11s-5.879,4.7-5.879,10.583-1.176,14.11-7.055,21.165-8.231,14.11-8.231,21.165c0,9.407,3.528,16.462,9.407,19.989,0,0,11.758,7.055,15.286,15.286s3.527,12.934,4.7,17.638c0,7.055-2.352,12.934-4.7,15.286-1.176,1.176-3.528,1.176-3.528,0,0-2.352-1.176-4.7-2.352-7.055-1.176-3.528-3.528-3.528-3.528,1.176-1.176,4.7-4.7,14.11-14.11,14.11-5.879,0-9.407-4.7-10.583-5.879l-2.352-2.352s-2.352-3.528-4.7,1.176-7.055,10.583-12.934,10.583c-9.407-1.176-15.286-10.583-18.814-15.286-1.176-1.176-1.176-1.176-2.352,0,0,2.352-1.176,4.7-1.176,7.055,0,1.176-1.176,3.528-3.528,1.176-3.528-2.352-5.879-5.879-8.231-8.231q-3.528-5.291-3.528-14.11c0-3.527,0-8.231,1.176-11.758,3.528-11.758,14.11-12.934,17.638-14.11,0,0,4.7,0,7.055-3.528,4.7-4.7,9.407-10.583,15.286-11.758l3.528-1.176v-3.528s4.7-23.517,9.407-42.331S128.392,49.6,128.392,49.6L113.106,62.534C111.93,64.886,94.292,107.217,87.237,127.206Zm57.617,116.409Z" transform="translate(-35.5 -49.6)"/></g><g transform="translate(202.296 57.768)"><path class="c" d="M51.042,79.745s-3.528,19.989,8.231,32.924c12.934,12.934,2.352,30.572,2.352,30.572l-9.407,15.286c-11.759,21.165,1.176,32.924,1.176,32.924,7.055,8.231,10.583-2.352,10.583-2.352,12.934,16.462,25.869,3.528,25.869,3.528,12.934,15.286,28.22-2.352,28.22-2.352,1.176,3.528,5.879,2.352,5.879,2.352,19.989-3.528,18.814-24.693,15.286-36.451s-21.165-16.462-21.165-16.462c-4.7-4.7-19.989-11.759-19.989-11.759S92.2,106.789,87.493,90.327C81.614,72.69,74.559,52.7,74.559,52.7s-12.934,3.528-23.517,0Z" transform="translate(-40.459 -49.172)"/><path class="g" d="M67.293,56.028s7.055,9.407,24.693,81.134c0,0,15.286,2.352,19.989,14.11,0,0,16.462-3.528,22.341,12.934,1.176,4.7,1.176,10.583-1.176,15.286-1.176,2.352-2.352,4.7-4.7,5.879,0,0-1.176-8.231-2.352-12.934,0-1.176-2.352-1.176-2.352,0-1.176,3.528-4.7,10.583-10.583,12.934-3.528,2.352-8.231,1.176-11.758-1.176-1.176-1.176-3.528-2.352-4.7-4.7a2.2,2.2,0,0,0-3.528,0q-1.764,3.528-7.055,7.055c-3.528,2.352-8.231,1.176-11.759-2.352-2.352-2.352-5.879-8.231-7.055-16.462,0,0-5.879,0-8.231,7.055,0,0-8.231-9.407,21.165-39.979-3.528-9.407,12.934-4.7-21.165-47.034-3.528,0-2.352,15.286,7.055,28.22,7.055,9.407,8.231,19.99,5.879,19.99,0,0-44.682,18.814-14.11,57.617,0,0,3.528,1.176,5.879-4.7,0,0,10.583,17.638,24.693,7.055,0,0,16.462,8.231,27.045-3.528,0,0,10.583,5.879,18.814-3.528,0,0,21.165-34.1-8.231-45.858,0,0-5.879-2.352-9.407-3.528,0,0-10.583-10.583-18.814-11.759,0,0-15.286-47.034-18.814-75.254Z" transform="translate(-41.425 -51.324)"/><path class="d" d="M84.327,52.4l-7.055,3.528s4.7,22.341,10.583,38.8c4.7,16.462,10.583,37.627,10.583,37.627v3.528l3.528,1.176c7.055,1.176,14.11,7.055,16.462,11.759h4.7c3.528,0,12.934,1.176,16.462,11.759,1.176,3.528,1.176,7.055,2.352,9.407,0,12.934-4.7,16.462-7.055,18.814-1.176,1.176-4.7,1.176-4.7-1.176,0-1.176-1.176-3.528-1.176-4.7s-1.176-1.176-2.352,0c-2.352,3.528-5.879,10.583-15.286,10.583-4.7,0-8.231-2.352-9.407-4.7a3.577,3.577,0,0,0-4.7,0c-2.352,2.352-5.879,5.879-10.583,5.879-9.407,0-14.11-9.407-16.462-14.11,0-1.176-2.352-1.176-2.352,0-1.176,4.7-2.352,10.583-3.528,11.759-1.176-1.176-7.055-5.879-8.231-16.462a43.4,43.4,0,0,1,2.352-15.286c3.528-7.055,12.934-14.11,12.934-14.11,4.7-3.528,7.055-10.583,7.055-18.814a26.928,26.928,0,0,0-8.231-18.814c-5.879-5.879-4.7-10.583-5.879-16.462,0-4.7-5.879-9.407-5.879-9.407s-7.055,21.165,1.176,30.572c3.528,3.528,7.055,7.055,9.407,15.286,1.176,4.7,2.352,8.231-4.7,11.758s-11.759,15.286-11.759,15.286h0A42.43,42.43,0,0,0,46.7,178.216c0,9.407,4.7,15.286,8.231,18.814,4.7,4.7,9.407,5.879,11.759,4.7,1.176,0,2.352-1.176,3.528-1.176,3.528,2.352,7.055,4.7,11.758,4.7a34.788,34.788,0,0,0,11.759-2.352h3.528a18.966,18.966,0,0,0,10.583,3.528c7.055,0,12.934-3.528,16.462-5.879,1.176,0,1.176-1.176,2.352,0a8.143,8.143,0,0,0,5.879,0c8.231-1.176,10.583-5.879,14.11-11.758a39.64,39.64,0,0,0,5.879-19.99c0-5.879-1.176-9.407-2.352-11.758-5.879-12.934-18.814-16.462-24.693-18.814a1.152,1.152,0,0,1-1.176-1.176c-3.528-3.528-10.583-7.055-15.286-8.231a2.529,2.529,0,0,1-2.352-2.352c0-7.055-4.7-16.462-11.758-34.1C87.855,73.565,85.5,54.752,84.327,52.4Z" transform="translate(-46.7 -52.4)"/></g></g><g transform="translate(366.025 88.189)"><path class="c" d="M384.677,70.2S300.015-47.381,60.142,40.808c0,0-58.793,51.737-7.055,229.291,0,0,101.123-62.32,164.619-23.517,0,0,96.42-39.979,157.564,5.879C375.27,252.461,408.194,172.5,384.677,70.2Z" transform="translate(-24.281 -2.005)"/><path class="g" d="M201.181,8.4S229.4,57.786,158.85,80.127,48.32,125.985,73.013,224.757L47.144,236.515S20.1,144.8,36.562,89.534C36.562,90.71,69.485,14.279,201.181,8.4Z" transform="translate(-30.097 2.183)"/><path class="g" d="M49.8,8.1S206.188,36.32,159.154,216.226L186.2,226.808C187.375,227.984,257.926,10.452,49.8,8.1Z" transform="translate(169.494 -1.045)"/><path class="d" d="M55.253,287.353,52.9,277.946C-.012,96.865,59.956,42.776,62.308,40.424l1.176-1.176h1.176Q158.14,7.5,230.454,7.5C330.4,7.5,364.5,53.358,369.2,60.413c81.134,84.661,21.165,201.071,19.989,202.246l-4.7,8.231-7.055-5.879c-17.638-12.934-41.155-19.99-68.2-19.99-42.331,0-79.958,15.286-81.134,16.462l-3.528,1.176-3.528-2.352c-12.934-8.231-28.22-11.759-47.034-11.759-52.913,0-109.354,34.1-110.53,35.276ZM70.539,53.358c-7.055,7.055-48.21,61.144-5.879,211.653,18.814-10.583,64.672-31.748,109.354-31.748,19.989,0,36.451,3.528,51.737,11.758,10.583-4.7,44.682-15.286,83.485-15.286,27.045,0,51.737,5.879,70.551,17.638C391.546,221.5,420.943,135.668,358.622,71l-1.176-1.176S328.05,23.962,231.63,23.962C184.6,22.786,130.507,32.193,70.539,53.358Z" transform="translate(-31.15 -7.5)"/></g><g transform="translate(451.272 195.191)"><g transform="translate(136.399)"><path class="e" d="M139.365,61.282A44.682,44.682,0,1,1,94.682,16.6C120.551,16.6,139.365,36.589,139.365,61.282Z" transform="translate(-50 -16.6)"/><path class="h" d="M114.3,49.606A31.748,31.748,0,1,1,82.548,17.858C100.186,16.682,114.3,31.968,114.3,49.606Z" transform="translate(-41.393 -3.748)"/><path class="i" d="M68.262,27.831a8.231,8.231,0,0,1-16.462,0A8.037,8.037,0,0,1,60.031,19.6C63.559,19.6,68.262,23.128,68.262,27.831Z" transform="translate(-30.635 15.675)"/></g><g transform="translate(0 23.517)"><path class="e" d="M92.489,45.645A26.609,26.609,0,0,1,65.445,72.689,26.609,26.609,0,0,1,38.4,45.645,26.609,26.609,0,0,1,65.445,18.6C80.731,19.776,92.489,31.534,92.489,45.645Z" transform="translate(-38.4 -18.6)"/><path class="h" d="M74.576,37.14A18.084,18.084,0,0,1,56.938,54.778,18.084,18.084,0,0,1,39.3,37.14,18.084,18.084,0,0,1,56.938,19.5C67.521,18.327,74.576,26.558,74.576,37.14Z" transform="translate(-28.717 -10.096)"/><path class="i" d="M50.307,25.1a5.058,5.058,0,0,1-4.7,4.7,5.058,5.058,0,0,1-4.7-4.7,5.058,5.058,0,0,1,4.7-4.7C49.131,20.4,50.307,22.752,50.307,25.1Z" transform="translate(-11.504 0.765)"/></g></g><g transform="translate(443.041 452.677)"><path class="c" d="M268.167,117.882c0,43.506-51.737,78.782-115.233,78.782S37.7,161.389,37.7,117.882,89.437,39.1,152.933,39.1,268.167,74.376,268.167,117.882Z" transform="translate(-37.7 -32.019)"/><path class="g" d="M40.8,61.059s76.43,61.144,166.971-5.879c0,0-1.176-3.528-5.879-5.879C170.144,76.345,100.768,78.7,59.614,54A37.183,37.183,0,0,1,40.8,61.059Z" transform="translate(-4.349 77.718)"/><path class="d" d="M43,124.361c0,48.21,35.276,87.013,103.475,87.013s109.354-42.331,109.354-89.365c0-48.21-41.155-83.485-109.354-83.485C78.279,37.348,43,76.151,43,124.361Zm-4.7,0c0-39.979,48.21-71.727,108.178-71.727s108.178,31.748,108.178,71.727c0,38.8-48.21,71.727-108.178,71.727S38.3,164.34,38.3,124.361Z" transform="translate(-31.245 -38.498)"/></g><g transform="translate(0 377.448)"><path class="j" d="M245.21,256.658s316.3-90.541,586.749,15.286c0,0-17.638,84.661,82.31,103.475,99.947,19.989,148.157-98.772,111.706-139.926,0,0,114.058-11.759,103.475-112.882C1118.867,22.664,1007.161,7.377,936.61,70.873c-55.265,50.562-51.737,54.089-51.737,54.089S474.5,46.18,240.506,143.776c0,0-32.924-72.9-108.178-83.485C55.9,49.708,6.512,93.215,1.808,140.249s15.286,82.31,68.2,104.651c0,0-47.034,104.651,12.934,146.981S191.12,411.87,222.868,374.243C253.441,338.968,264.023,287.23,245.21,256.658Z" transform="translate(12.047 -23.839)"/><path class="k" d="M19,230.448S58.979,156.37,37.814,122.27c0,0-17.638-24.693,14.11-35.276,31.748-11.759,392.734-96.42,606.739,22.341,3.527,2.352,7.055,3.528,8.231,7.055s0,5.879,0,14.11c-1.176,12.934,1.176,31.748,18.814,48.21,0,0,102.3,82.31,152.86-41.155,0,0-19.989,155.212-159.916,76.43,0,0-47.034-23.517-38.8-90.54,0,0-258.687-107-579.694-17.638C60.155,105.808,77.793,197.525,19,230.448Z" transform="translate(204.157 125.835)"/><g transform="translate(12.023 13.093)"><path class="k" d="M223.937,154.167c3.528,4.7,4.7,7.055,9.407,8.231,0,0,7.055,2.352,11.758,1.176,36.451-10.583,134.047-43.507,257.511-49.386,143.454-7.055,317.48,35.276,375.1,42.331,10.583,1.176,15.286,1.176,18.814-1.176,3.527-1.176,7.055-4.7,12.934-10.583,22.341-24.693,79.958-82.31,137.575-81.134,69.375,1.176,89.365,83.485,25.869,152.861,108.178-62.32,28.221-154.037,25.869-155.212-94.068-89.365-211.653,63.5-218.708,61.144-50.562-12.934-199.895-30.572-345.7-29.4C381.5,94.2,241.574,143.585,239.223,137.705,218.057,90.671,153.385,24.824,33.449,82.44c0,0-62.32,52.913-14.11,125.816,23.517,37.627,51.737,35.275,51.737,35.275S6.4,389.337,128.693,411.679c0,0,50.562,11.759,89.365-30.572,0,0-117.585,31.748-126.992-63.5-4.7-58.793,47.034-92.892,17.638-91.716,0,0-61.144,2.352-74.079-65.848C22.866,93.023,139.275,38.934,223.937,154.167Z" transform="translate(-1.044 -33.214)"/></g><path class="d" d="M158.507,437.769h0q-35.276,0-70.551-24.693c-56.441-38.8-32.924-119.937-22.341-150.509C17.4,239.05-4.936,201.423.943,150.861,5.646,105,47.977,57.969,119.7,57.969c8.231,0,16.462,1.176,25.869,2.352,64.672,9.407,99.947,57.617,112.882,79.958,77.606-30.572,181.081-45.858,306.9-45.858,150.509,0,289.26,22.341,325.711,28.22,7.055-8.231,19.99-23.517,49.386-49.386S1007.472,32.1,1043.923,32.1c59.968,0,103.475,39.979,110.53,101.123,3.528,30.572-3.528,57.617-21.165,78.782-21.165,27.044-54.089,38.8-75.255,44.682,8.231,21.165,7.056,48.21-4.7,74.079-15.286,34.1-50.562,70.551-104.651,70.551-8.231,0-16.462-1.176-24.693-2.352-36.451-7.055-62.32-22.341-77.606-47.034a98.6,98.6,0,0,1-15.286-61.144c-83.486-31.748-179.905-47.034-286.908-47.034-125.816,0-230.467,22.341-268.094,31.748,11.759,34.1-1.176,82.309-31.748,118.761C218.475,422.483,189.079,437.769,158.507,437.769ZM119.7,82.662c-57.617,0-90.541,35.276-94.068,70.551-4.7,43.506,15.286,72.9,61.144,90.541a10.6,10.6,0,0,1,7.055,7.055,16.315,16.315,0,0,1,0,10.583c0,1.176-42.331,95.244,8.231,130.52,45.858,31.748,87.013,25.869,122.289-15.286,28.22-32.924,37.627-78.782,22.341-103.475-2.352-3.527-2.352-7.055-1.176-11.759a14.2,14.2,0,0,1,8.231-8.231c4.7-1.176,129.344-36.451,289.259-36.451,114.058,0,216.357,17.638,304.546,52.913,5.879,2.352,9.407,8.231,8.231,14.11,0,0-5.879,29.4,10.583,54.089,11.759,17.638,32.924,29.4,61.144,35.276,7.055,1.176,12.934,2.352,18.814,2.352,52.913,0,75.255-42.331,81.134-56.441,10.583-24.693,10.583-51.738-1.176-64.672-3.528-3.528-4.7-8.231-2.352-12.934,1.176-4.7,5.879-7.055,10.583-8.231,0,0,50.562-5.879,76.43-38.8,12.934-16.462,17.637-36.451,15.286-59.968-5.879-57.617-48.21-77.606-85.837-77.606-30.572,0-62.32,12.934-87.013,35.276-36.451,32.924-45.858,43.506-47.034,47.034,0,1.176,0,2.352-1.176,2.352a13.411,13.411,0,0,1-14.11,7.055c-1.176,0-157.564-29.4-329.238-29.4-128.168,0-231.643,16.462-308.073,48.21-5.879,2.352-14.11,0-16.462-7.055,0-1.176-30.572-65.848-98.771-76.43C133.814,82.662,126.759,82.662,119.7,82.662Z" transform="translate(-0.022 -32.1)"/><path class="l" d="M42.824,59.477C38.12,48.894,24.01,45.367,9.9,50.07c0,0,18.814,2.352,24.693,10.583,4.7,7.055,4.7,16.462-4.7,34.1C29.889,94.753,53.407,80.642,42.824,59.477Z" transform="translate(106.255 139.242)"/><path class="l" d="M85.665,68.965c-2.352,10.583,5.879,22.341,19.989,27.045,0,0-12.934-12.934-12.934-23.517,0-8.231,5.879-16.462,23.517-24.693C116.237,48.976,90.368,46.624,85.665,68.965Z" transform="translate(917.081 136.809)"/></g><g transform="translate(281.935 297.074)"><path class="c" d="M347.911,26.827c-29.4,3.528-36.451,5.879-58.793,10.583-24.693-3.528-54.089-8.231-75.254-7.055-35.276,1.176-65.848,5.879-79.958,11.759C102.158,52.7,9.266,86.8,28.079,177.336,43.366,251.414,90.4,314.91,166.83,314.91c38.8,0,91.716-5.879,130.519-68.2,37.627,57.617,92.892,64.672,130.52,68.2,38.8,3.528,139.926-90.541,138.751-137.575C561.916,46.816,431.4,35.058,413.759,32.706,394.945,28,376.131,23.3,347.911,26.827Z" transform="translate(-6.899 -21.707)"/><path class="g" d="M33.6,52.664S65.348,171.425,204.1,213.756c0,0,135.223-47.034,148.157-179.905,0,0-47.034-18.814-128.168,2.352l-25.869-2.352C198.219,32.675,86.513,16.213,33.6,52.664Z" transform="translate(79.296 -15.797)"/><path class="g" d="M144.962,41.01S52.07,97.451,59.125,164.475s45.858,102.3,84.661,116.409c0,0,81.134,22.341,154.037-69.375,0,0,71.727,98.771,151.685,70.551,0,0,163.443-87.013,77.606-217.532,0,0,61.144,67.024,41.155,114.058-9.407,22.341-49.386,109.354-150.509,122.288,0,0-79.958-2.352-117.585-68.2,0,0-59.968,102.3-168.147,67.023,0,0-118.761-70.551-105.827-159.916,0,0,14.11-89.365,117.585-111.706L161.424,26.9Z" transform="translate(-10.9 -7.67)"/><path class="d" d="M309.745,32.736c-74.079-11.758-125.816-2.352-144.63-1.176-72.9,8.231-142.278,74.079-141.1,146.981C25.189,212.641,102.8,331.4,182.753,331.4c41.155,0,90.541-15.286,129.343-71.727,37.627,51.737,91.716,63.5,130.52,63.5s82.31-35.276,96.42-51.737c25.869-29.4,52.913-76.43,54.089-91.716,2.352-34.1-17.638-69.375-39.979-95.244s-52.913-42.331-87.013-48.21C454.375,33.912,385,15.1,309.745,32.736Zm-3.528,15.286C373.241,22.153,461.43,49.2,461.43,49.2,499.057,59.78,526.1,75.066,543.74,93.88c21.165,23.517,32.924,54.089,31.748,85.837,0,15.286-28.22,54.089-52.913,78.782s-43.507,52.913-78.782,52.913c-37.627,0-90.541-11.759-124.64-65.848l-5.879-8.231-5.879,9.407c-36.451,57.617-84.661,70.551-125.816,69.375C123.961,314.94,45.179,223.224,44,183.245c-1.176-67.023,56.441-124.64,123.464-131.7h0C186.281,44.494,232.139,32.736,306.218,48.022Z" transform="translate(-23.999 -25.265)"/><g transform="translate(417.442 164.804)"><path class="d" d="M65.1,45.39a5.879,5.879,0,0,0,11.758,0,5.555,5.555,0,0,0-5.879-5.879C67.452,38.335,65.1,41.863,65.1,45.39Z" transform="translate(0.748 -39.28)"/><path class="d" d="M64.5,47.579a5.879,5.879,0,1,0,11.758,0,5.879,5.879,0,0,0-11.758,0Z" transform="translate(-5.708 -13.249)"/><path class="d" d="M62.5,46.979a5.879,5.879,0,1,0,11.758,0,5.879,5.879,0,1,0-11.758,0Z" transform="translate(-27.224 -19.704)"/><path class="d" d="M61.8,49.179a5.879,5.879,0,0,0,11.758,0,5.879,5.879,0,1,0-11.758,0Z" transform="translate(-34.755 3.965)"/><path class="d" d="M59.5,49.779a5.555,5.555,0,0,0,5.879,5.879,5.555,5.555,0,0,0,5.879-5.879A5.555,5.555,0,0,0,65.379,43.9,5.555,5.555,0,0,0,59.5,49.779Z" transform="translate(-59.5 10.42)"/></g><g transform="translate(90.555 164.804)"><path class="d" d="M43.459,45.39a5.555,5.555,0,0,1-5.879,5.879A5.555,5.555,0,0,1,31.7,45.39a5.555,5.555,0,0,1,5.879-5.879C39.931,38.335,43.459,41.863,43.459,45.39Z" transform="translate(-31.7 -39.28)"/><path class="d" d="M44.059,47.579a5.555,5.555,0,0,1-5.879,5.879A5.555,5.555,0,0,1,32.3,47.579,5.555,5.555,0,0,1,38.179,41.7C40.531,41.7,44.059,44.052,44.059,47.579Z" transform="translate(-25.245 -13.249)"/><path class="d" d="M46.059,46.979a5.555,5.555,0,0,1-5.879,5.879A5.555,5.555,0,0,1,34.3,46.979,5.555,5.555,0,0,1,40.179,41.1C42.531,41.1,46.059,43.452,46.059,46.979Z" transform="translate(-3.728 -19.704)"/><path class="d" d="M46.759,49.179a5.555,5.555,0,0,1-5.879,5.879A5.555,5.555,0,0,1,35,49.179,5.555,5.555,0,0,1,40.879,43.3,5.555,5.555,0,0,1,46.759,49.179Z" transform="translate(3.803 3.965)"/><path class="d" d="M49.059,49.779a5.555,5.555,0,0,1-5.879,5.879A5.555,5.555,0,0,1,37.3,49.779,5.555,5.555,0,0,1,43.179,43.9C45.531,43.9,49.059,46.252,49.059,49.779Z" transform="translate(28.548 10.42)"/></g><path class="m" d="M35.9,40.191S52.362,170.71,179.354,207.162c0,0,126.992-39.979,146.981-170.5,0,0-70.551-23.517-148.157,0C178.178,36.663,89.989,17.85,35.9,40.191Z" transform="translate(104.041 -15.082)"/></g><g transform="translate(323.986 49.386)"><path class="c" d="M45.51,37.471s-35.276,36.451-4.7,172.85c0,0,56.441-69.375,105.827-94.068,49.386-25.869,77.606-35.276,74.079-61.144S94.9-33.08,45.51,37.471Z" transform="translate(-19.347 3.684)"/><path class="n" d="M201.009,40.427S68.138,2.8,54.028,98.044C42.269,172.122,44.621,212.1,44.621,212.1S-11.82,39.251,84.6,9.855C84.6,9.855,162.206-13.662,201.009,40.427Z" transform="translate(-20.809 1.904)"/><path class="d" d="M43.156,238.194l-3.528-17.638C11.408,90.037,40.8,46.531,46.683,40.651,63.145,17.134,89.014,4.2,121.938,4.2c52.913,0,112.882,34.1,116.409,58.793,3.528,28.22-21.165,41.155-58.793,59.968-5.879,3.528-12.934,5.879-19.989,10.583C112.531,158.236,57.266,225.26,56.09,225.26ZM121.938,21.838c-27.045,0-47.034,9.407-61.144,29.4L59.618,52.41S31.4,86.51,53.738,199.391c19.99-22.341,59.968-63.5,96.42-82.31,7.055-3.528,14.11-7.055,19.99-10.583C206.6,88.861,221.885,80.63,219.533,65.344,219.533,54.762,171.323,21.838,121.938,21.838Z" transform="translate(-27.575 -4.2)"/></g><g transform="translate(594.726 0)"><path class="c" d="M52.2,87.913S105.113,3.252,209.764.9c0,0,47.034,81.134-37.627,185.784C172.137,186.684,127.455,107.9,52.2,87.913Z" transform="translate(-33.386 9.683)"/><path class="o" d="M55.1,41.551S78.617,5.1,147.992,5.1c0,0,15.286,44.682-18.814,102.3C129.179,108.575,100.958,65.068,55.1,41.551Z" transform="translate(-2.187 54.868)"/><path class="n" d="M100.31,65.431s22.341-45.858,114.058-62.32c0,0-84.661-18.814-162.267,70.551,0,0,90.54,44.682,118.761,104.651C170.861,177.137,182.62,114.817,100.31,65.431Z" transform="translate(-34.462 15.702)"/><path class="d" d="M187,215.181l-5.879-15.286c0-1.176-34.1-83.485-115.233-94.068L50.6,103.475l9.407-12.934C62.359,87.013,119.975,3.528,229.329,0h5.879l3.527,4.7c2.352,3.528,49.386,89.365-38.8,197.543ZM84.7,89.365c59.968,15.286,94.068,63.5,107,88.189C248.143,99.947,229.329,38.8,221.1,19.989,150.547,24.693,104.689,67.023,84.7,89.365Z" transform="translate(-50.6 0)"/></g><path class="d" d="M51.3,40.176s4.7-19.989-4.7-35.276c0,0,12.934,3.528,15.286,17.638,0,0,2.352-4.7,12.934-12.934,0,0-9.407,21.165-1.176,27.045Z" transform="translate(501.092 52.717)"/></svg>