<?xml version="1.0" encoding="utf-8"?>
<!-- Generator: Adobe Illustrator 21.1.0, SVG Export Plug-In . SVG Version: 6.00 Build 0)  -->
<svg version="1.1" id="Layer_1" xmlns="http://www.w3.org/2000/svg" xmlns:xlink="http://www.w3.org/1999/xlink" x="0px" y="0px"
	 width="1155.3px" height="816.4px" viewBox="0 0 1155.3 816.4" style="enable-background:new 0 0 1155.3 816.4;"
	 xml:space="preserve">
<style type="text/css">
	.st0{fill:#7C5528;}
	.st1{fill:#593D1F;}
	.st2{fill:#231F20;}
	.st3{fill:#8B6C4E;}
	.st4{fill:#00303E;}
	.st5{fill:#FFFFFF;}
	.st6{fill:#E0E1E2;}
	.st7{fill:#95979A;}
	.st8{fill:#808283;}
	.st9{fill:#231811;}
	.st10{fill:#2C1F14;}
	.st11{fill:#5C4024;}
	.st12{fill:#FFC0CB;}
	.st13{fill:#F599CB;}
	.st14{fill:#E2AAB7;stroke:#D38DA0;stroke-width:4;stroke-miterlimit:10;}
</style>
<g transform="translate(366.025 88.189)">
	<path class="st0" d="M360.4,78.2c0,0-84.7-117.6-324.5-29.4c0,0-58.8,51.7-7.1,229.3c0,0,101.1-62.3,164.6-23.5
		c0,0,96.4-40,157.6,5.9C351,260.5,383.9,180.5,360.4,78.2z"/>
	<path class="st1" d="M171.1,20.6c0,0,28.2,49.4-42.3,71.7S18.2,138.2,42.9,236.9L17,248.7c0,0-27-91.7-10.6-147
		C6.5,102.9,39.4,26.5,171.1,20.6z"/>
	<path class="st1" d="M219.3,17.1c0,0,156.4,28.2,109.4,208.1l27,10.6C356.9,236.9,427.4,19.4,219.3,17.1z"/>
	<path class="st2" d="M24.1,289.9l-2.4-9.4C-31.2,99.4,28.8,45.3,31.2,42.9l1.2-1.2h1.2C95.8,20.6,151.1,10,199.3,10
		c99.9,0,134,45.9,138.7,52.9c81.1,84.7,21.2,201.1,20,202.2l-4.7,8.2l-7.1-5.9c-17.6-12.9-41.2-20-68.2-20
		c-42.3,0-80,15.3-81.1,16.5l-3.5,1.2l-3.5-2.4c-12.9-8.2-28.2-11.8-47-11.8c-52.9,0-109.4,34.1-110.5,35.3L24.1,289.9z M39.4,55.9
		c-7.1,7.1-48.2,61.1-5.9,211.7c18.8-10.6,64.7-31.7,109.4-31.7c20,0,36.5,3.5,51.7,11.8c10.6-4.7,44.7-15.3,83.5-15.3
		c27,0,51.7,5.9,70.6,17.6c11.8-25.9,41.2-111.7-21.2-176.4l-1.2-1.2c0,0-29.4-45.9-125.8-45.9C153.5,25.3,99.4,34.7,39.4,55.9z"/>
</g>
<g transform="translate(451.272 195.191)">
	<g transform="translate(136.399)">
		<path class="st3" d="M89.4,54.7c0,24.7-20,44.7-44.7,44.7S0,79.4,0,54.7C0,30,20,10,44.7,10C70.6,10,89.4,30,89.4,54.7z"/>
		<path class="st4" d="M72.9,55.9c0,17.5-14.2,31.7-31.7,31.7S9.4,73.4,9.4,55.9c0-17.5,14.2-31.7,31.7-31.7
			C58.8,22.9,72.9,38.2,72.9,55.9z"/>
		<path class="st5" d="M37.6,53.5c0,4.5-3.7,8.2-8.2,8.2c-4.5,0-8.2-3.7-8.2-8.2c-0.1-4.4,3.4-8.1,7.8-8.2c0.1,0,0.3,0,0.4,0
			C32.9,45.3,37.6,48.8,37.6,53.5z"/>
	</g>
	<g transform="translate(0 23.517)">
		<path class="st3" d="M54.1,37c0.2,14.7-11.5,26.8-26.2,27c-0.3,0-0.6,0-0.9,0C12.4,64.3,0.2,52.6,0,37.9c0-0.3,0-0.6,0-0.9
			c-0.2-14.7,11.5-26.8,26.2-27c0.3,0,0.6,0,0.9,0C42.3,11.2,54.1,22.9,54.1,37z"/>
		<path class="st4" d="M45.9,37c-0.2,9.6-8,17.4-17.6,17.6c-9.6-0.2-17.4-8-17.6-17.6c0.2-9.6,8-17.4,17.6-17.6
			C38.8,18.2,45.9,26.5,45.9,37z"/>
		<path class="st5" d="M38.8,35.9c-0.2,2.5-2.2,4.5-4.7,4.7c-2.5-0.2-4.5-2.2-4.7-4.7c0.2-2.5,2.2-4.5,4.7-4.7
			C37.6,31.2,38.8,33.5,38.8,35.9z"/>
	</g>
</g>
<g transform="translate(443.041 452.677)">
	<path class="st0" d="M230.5,95.9c0,43.5-51.7,78.8-115.2,78.8S0,139.4,0,95.9s51.7-78.8,115.2-78.8S230.5,52.4,230.5,95.9z"/>
	<path class="st1" d="M36.5,148.8c0,0,76.4,61.1,167-5.9c0,0-1.2-3.5-5.9-5.9c-31.7,27-101.1,29.4-142.3,4.7
		C49.8,145.8,43.3,148.2,36.5,148.8z"/>
	<path class="st2" d="M11.8,95.9c0,48.2,35.3,87,103.5,87s109.4-42.3,109.4-89.4c0-48.2-41.2-83.5-109.4-83.5
		C47,8.8,11.8,47.7,11.8,95.9z M7.1,95.9c0-40,48.2-71.7,108.2-71.7s108.2,31.7,108.2,71.7c0,38.8-48.2,71.7-108.2,71.7
		S7.1,135.8,7.1,95.9z"/>
</g>
<g transform="translate(0 377.448)">
	<path class="st6" d="M289,249.1c0,0,284.9-85.4,528.5,14.4c0,0-15.9,79.8,74.1,97.6c90,18.9,133.5-93.1,100.6-132
		c0,0,102.7-11.1,93.2-106.5C1076,28.4,975.4,14,911.8,73.9c-49.8,47.7-46.6,51-46.6,51s-369.7-74.3-580.4,17.7
		c0,0-29.7-68.7-97.4-78.7C118.5,53.9,74,95,69.8,139.3c-4.2,44.4,13.8,77.6,61.4,98.7c0,0-42.4,98.7,11.7,138.6s97.4,18.9,126-16.6
		C296.5,326.7,306,277.9,289,249.1z"/>
	<path class="st7" d="M258.3,365.5c0,0,36-69.9,16.9-102c0,0-15.9-23.3,12.7-33.3c28.6-11.1,353.8-90.9,546.5,21.1
		c3.2,2.2,6.4,3.3,7.4,6.7c1.1,3.3,0,5.5,0,13.3c-1.1,12.2,1.1,29.9,16.9,45.5c0,0,92.2,77.6,137.7-38.8c0,0-18,146.4-144,72.1
		c0,0-42.4-22.2-35-85.4c0,0-233-100.9-522.2-16.6C295.4,248,311.3,334.5,258.3,365.5z"/>
	<g transform="translate(12.023 13.093)">
		<path class="st7" d="M256.9,142.9c3.2,4.4,4.2,6.7,8.5,7.8c0,0,6.4,2.2,10.6,1.1c32.8-10,120.7-41,232-46.6
			c129.2-6.7,286,33.3,337.9,39.9c9.5,1.1,13.8,1.1,16.9-1.1c3.2-1.1,6.4-4.4,11.7-10c20.1-23.3,72-77.6,123.9-76.5
			c62.5,1.1,80.5,78.7,23.3,144.2c97.4-58.8,25.4-145.3,23.3-146.4c-84.7-84.3-190.7,59.9-197,57.7
			c-45.5-12.2-180.1-28.8-311.4-27.7c-137.7,1.1-263.7,47.7-265.9,42.1C251.6,83,193.3,20.9,85.3,75.2c0,0-56.1,49.9-12.7,118.7
			c21.2,35.5,46.6,33.3,46.6,33.3s-58.3,137.5,51.9,158.6c0,0,45.5,11.1,80.5-28.8c0,0-105.9,29.9-114.4-59.9
			c-4.2-55.4,42.4-87.6,15.9-86.5c0,0-55.1,2.2-66.7-62.1C75.8,85.2,180.6,34.2,256.9,142.9z"/>
	</g>
	<path class="st2" d="M200.1,412.1L200.1,412.1c-21.2,0-42.4-7.8-63.6-23.3c-50.8-36.6-29.7-113.1-20.1-141.9
		C73,224.7,52.8,189.2,58.1,141.5c4.2-43.2,42.4-87.6,107-87.6c7.4,0,14.8,1.1,23.3,2.2c58.3,8.9,90,54.3,101.7,75.4
		c69.9-28.8,163.1-43.2,276.5-43.2c135.6,0,260.6,21.1,293.4,26.6c6.4-7.8,18-22.2,44.5-46.6s60.4-38.8,93.2-38.8
		c54,0,93.2,37.7,99.6,95.4c3.2,28.8-3.2,54.3-19.1,74.3c-19.1,25.5-48.7,36.6-67.8,42.1c7.4,20,6.4,45.5-4.2,69.9
		c-13.8,32.2-45.5,66.5-94.3,66.5c-7.4,0-14.8-1.1-22.2-2.2c-32.8-6.7-56.1-21.1-69.9-44.4c-10.5-17.1-15.3-37.4-13.8-57.7
		c-75.2-29.9-162.1-44.4-258.4-44.4c-113.3,0-207.6,21.1-241.5,29.9c10.6,32.2-1.1,77.6-28.6,112
		C254.1,397.7,227.6,412.1,200.1,412.1z M165.1,77.2c-51.9,0-81.6,33.3-84.7,66.5c-4.2,41,13.8,68.7,55.1,85.4c3,1,5.4,3.5,6.4,6.7
		c1.1,3.2,1.1,6.7,0,10c0,1.1-38.1,89.8,7.4,123.1c41.3,29.9,78.4,24.4,110.2-14.4c25.4-31,33.9-74.3,20.1-97.6
		c-2.1-3.3-2.1-6.7-1.1-11.1c1.3-3.6,4-6.4,7.4-7.8c4.2-1.1,116.5-34.4,260.6-34.4c102.7,0,194.9,16.6,274.3,49.9
		c5.3,2.2,8.5,7.8,7.4,13.3c0,0-5.3,27.7,9.5,51c10.6,16.6,29.7,27.7,55.1,33.3c6.4,1.1,11.7,2.2,16.9,2.2
		c47.7,0,67.8-39.9,73.1-53.2c9.5-23.3,9.5-48.8-1.1-61c-3.2-3.3-4.2-7.8-2.1-12.2c1.1-4.4,5.3-6.7,9.5-7.8c0,0,45.5-5.5,68.8-36.6
		c11.7-15.5,15.9-34.4,13.8-56.6c-5.3-54.3-43.4-73.2-77.3-73.2c-27.5,0-56.1,12.2-78.4,33.3c-32.8,31-41.3,41-42.4,44.4
		c0,1.1,0,2.2-1.1,2.2c-2.4,4.9-7.5,7.6-12.7,6.7c-1.1,0-141.9-27.7-296.6-27.7c-115.5,0-208.7,15.5-277.5,45.5
		c-5.3,2.2-12.7,0-14.8-6.7c0-1.1-27.5-62.1-89-72.1C177.8,77.2,171.5,77.2,165.1,77.2z"/>
	<path class="st8" d="M191.6,217c-4.2-10-16.9-13.3-29.7-8.9c0,0,16.9,2.2,22.2,10c4.2,6.7,4.2,15.5-4.2,32.2
		C179.9,250.2,201.1,236.9,191.6,217z"/>
	<path class="st8" d="M960.6,223.6c-2.1,10,5.3,21.1,18,25.5c0,0-11.7-12.2-11.7-22.2c0-7.8,5.3-15.5,21.2-23.3
		C988.1,204.8,964.8,202.5,960.6,223.6z"/>
</g>
<g transform="translate(281.935 297.074)">
	<path class="st0" d="M341,15.1c-29.4,3.5-36.5,5.9-58.8,10.6c-24.7-3.5-54.1-8.2-75.3-7.1c-35.3,1.2-65.8,5.9-80,11.8
		C95.3,41,2.4,75.1,21.2,165.6c15.3,74.1,62.3,137.6,138.8,137.6c38.8,0,91.7-5.9,130.5-68.2c37.6,57.6,92.9,64.7,130.5,68.2
		c38.8,3.5,139.9-90.5,138.8-137.6C555,35.1,424.5,23.4,406.9,21C388,16.3,369.2,11.6,341,15.1z"/>
	<path class="st1" d="M112.9,46.9c0,0,31.7,118.8,170.5,161.1c0,0,135.2-47,148.2-179.9c0,0-47-18.8-128.2,2.4l-25.9-2.4
		C277.5,26.9,165.8,10.4,112.9,46.9z"/>
	<path class="st1" d="M134.1,43.3c0,0-92.9,56.4-85.8,123.5s45.9,102.3,84.7,116.4c0,0,81.1,22.3,154-69.4c0,0,71.7,98.8,151.7,70.6
		c0,0,163.4-87,77.6-217.5c0,0,61.1,67,41.2,114.1C548,203.3,508,290.3,406.9,303.2c0,0-80-2.4-117.6-68.2c0,0-60,102.3-168.1,67
		c0,0-118.8-70.6-105.8-159.9c0,0,14.1-89.4,117.6-111.7l17.6-1.2L134.1,43.3z"/>
	<path class="st2" d="M285.7,17.5c-74.1-11.8-125.8-2.4-144.6-1.2C68.2,24.5-1.2,90.4,0,163.3c1.2,34.1,78.8,152.9,158.7,152.9
		c41.2,0,90.5-15.3,129.3-71.7c37.6,51.7,91.7,63.5,130.5,63.5s82.3-35.3,96.4-51.7c25.9-29.4,52.9-76.4,54.1-91.7
		c2.4-34.1-17.6-69.4-40-95.2c-22.3-25.9-52.9-42.3-87-48.2C430.4,18.6,361-0.2,285.7,17.5z M282.2,32.8
		c67-25.9,155.2,1.2,155.2,1.2c37.6,10.6,64.7,25.9,82.3,44.7c21.2,23.5,32.9,54.1,31.7,85.8c0,15.3-28.2,54.1-52.9,78.8
		c-24.7,24.7-43.5,52.9-78.8,52.9c-37.6,0-90.5-11.8-124.6-65.8l-5.9-8.2l-5.9,9.4c-36.5,57.6-84.7,70.6-125.8,69.4
		C100,299.7,21.2,208,20,168C18.8,101,76.4,43.3,143.5,36.3l0,0C162.3,29.2,208.1,17.5,282.2,32.8L282.2,32.8z"/>
	<g transform="translate(417.442 164.804)">
		<path class="st2" d="M65.8,16.1c0,3.2,2.6,5.9,5.9,5.9c3.2,0,5.9-2.6,5.9-5.9c0.2-3.1-2.1-5.7-5.2-5.9c-0.2,0-0.4,0-0.7,0
			C68.2,9.1,65.8,12.6,65.8,16.1z"/>
		<path class="st2" d="M58.8,44.3c0,3.2,2.6,5.9,5.9,5.9c3.2,0,5.9-2.6,5.9-5.9s-2.6-5.9-5.9-5.9C61.4,38.5,58.8,41.1,58.8,44.3z"/>
		<path class="st2" d="M35.3,37.3c0,3.2,2.6,5.9,5.9,5.9c3.2,0,5.9-2.6,5.9-5.9c0-3.2-2.6-5.9-5.9-5.9C37.9,31.4,35.3,34,35.3,37.3
			C35.3,37.3,35.3,37.3,35.3,37.3z"/>
		<path class="st2" d="M27,63.1c0,3.2,2.6,5.9,5.9,5.9c3.2,0,5.9-2.6,5.9-5.9c0-3.2-2.6-5.9-5.9-5.9C29.7,57.3,27,59.9,27,63.1
			C27,63.1,27,63.1,27,63.1z"/>
		<path class="st2" d="M0,70.2c-0.2,3.1,2.1,5.7,5.2,5.9c0.2,0,0.4,0,0.7,0c3.1,0.2,5.7-2.1,5.9-5.2c0-0.2,0-0.4,0-0.7
			c0.2-3.1-2.1-5.7-5.2-5.9c-0.2,0-0.4,0-0.7,0c-3.1-0.2-5.7,2.1-5.9,5.2C0,69.8,0,70,0,70.2z"/>
	</g>
	<g transform="translate(90.555 164.804)">
		<path class="st2" d="M11.8,16.1c0.2,3.1-2.1,5.7-5.2,5.9c-0.2,0-0.4,0-0.7,0c-3.1,0.2-5.7-2.1-5.9-5.2c0-0.2,0-0.4,0-0.7
			c-0.2-3.1,2.1-5.7,5.2-5.9c0.2,0,0.4,0,0.7,0C8.2,9.1,11.8,12.6,11.8,16.1z"/>
		<path class="st2" d="M18.8,44.3c0.2,3.1-2.1,5.7-5.2,5.9c-0.2,0-0.4,0-0.7,0c-3.1,0.2-5.7-2.1-5.9-5.2c0-0.2,0-0.4,0-0.7
			c-0.2-3.1,2.1-5.7,5.2-5.9c0.2,0,0.4,0,0.7,0C15.3,38.5,18.8,40.8,18.8,44.3z"/>
		<path class="st2" d="M42.3,37.3c0.2,3.1-2.1,5.7-5.2,5.9c-0.2,0-0.4,0-0.7,0c-3.1,0.2-5.7-2.1-5.9-5.2c0-0.2,0-0.4,0-0.7
			c-0.2-3.1,2.1-5.7,5.2-5.9c0.2,0,0.4,0,0.7,0C38.8,31.4,42.3,33.7,42.3,37.3z"/>
		<path class="st2" d="M50.6,63.1c0.2,3.1-2.1,5.7-5.2,5.9c-0.2,0-0.4,0-0.7,0c-3.1,0.2-5.7-2.1-5.9-5.2c0-0.2,0-0.4,0-0.7
			c-0.2-3.1,2.1-5.7,5.2-5.9c0.2,0,0.4,0,0.7,0c3.1-0.2,5.7,2.1,5.9,5.2C50.6,62.7,50.6,62.9,50.6,63.1z"/>
		<path class="st2" d="M77.6,70.2c0.2,3.1-2.1,5.7-5.2,5.9c-0.2,0-0.4,0-0.7,0c-3.1,0.2-5.7-2.1-5.9-5.2c0-0.2,0-0.4,0-0.7
			c-0.2-3.1,2.1-5.7,5.2-5.9c0.2,0,0.4,0,0.7,0C74.1,64.3,77.6,66.7,77.6,70.2z"/>
	</g>
	<path class="st9" d="M139.9,35.1c0,0,16.5,130.5,143.5,167c0,0,127-40,147-170.5c0,0-70.6-23.5-148.2,0
		C282.2,31.6,194,12.8,139.9,35.1z"/>
</g>
<g transform="translate(594.726 0)">
	<path class="st0" d="M18.8,107.6c0,0,52.9-84.7,157.6-87c0,0,47,81.1-37.6,185.8C138.8,206.4,94.1,127.6,18.8,107.6z"/>
	<path class="st10" d="M52.9,106.4c0,0,23.5-36.5,92.9-36.5c0,0,15.3,44.7-18.8,102.3C127,173.4,98.8,129.9,52.9,106.4z"/>
	<path class="st11" d="M65.8,91.1c0,0,22.3-45.9,114.1-62.3c0,0-84.7-18.8-162.3,70.6c0,0,90.5,44.7,118.8,104.7
		C136.4,202.8,148.2,140.5,65.8,91.1z"/>
	<path class="st2" d="M136.4,225.2l-5.9-15.3c0-1.2-34.1-83.5-115.2-94.1L0,113.5l9.4-12.9c2.4-3.5,60-87,169.3-90.5h5.9l3.5,4.7
		c2.4,3.5,49.4,89.4-38.8,197.5L136.4,225.2z M34.1,99.4c60,15.3,94.1,63.5,107,88.2c56.4-77.6,37.6-138.8,29.4-157.6
		C99.9,34.7,54.1,77,34.1,99.4z"/>
</g>
<path class="st2" d="M552.4,102.9c0,0,4.7-20-4.7-35.3c0,0,12.9,3.5,15.3,17.6c0,0,2.4-4.7,12.9-12.9c0,0-9.4,21.2-1.2,27
	L552.4,102.9z"/>
<g transform="translate(323.986 49.386)">
	<path class="st0" d="M14.6,22.5c0,0-35.3,36.5-4.7,172.9c0,0,56.4-69.4,105.8-94.1c49.4-25.9,77.6-35.3,74.1-61.1
		S64-48.1,14.6,22.5z"/>
	<path class="st11" d="M168.6,23.6c0,0-132.9-37.6-147,57.6c-11.8,74.1-9.4,114.1-9.4,114.1S-44.2,22.5,52.2-6.9
		C52.2-6.9,129.8-30.4,168.6,23.6z"/>
	<path class="st2" d="M4,215.3l-3.5-17.6C-27.7,67.2,1.7,23.6,7.5,17.8C24-5.8,49.9-18.7,82.8-18.7c52.9,0,112.9,34.1,116.4,58.8
		c3.5,28.2-21.2,41.2-58.8,60c-5.9,3.5-12.9,5.9-20,10.6c-47,24.7-102.3,91.7-103.5,91.7L4,215.3z M82.8-1c-27,0-47,9.4-61.1,29.4
		l-1.2,1.2c0,0-28.2,34.1-5.9,147c20-22.3,60-63.5,96.4-82.3c7.1-3.5,14.1-7.1,20-10.6c36.5-17.6,51.7-25.9,49.4-41.2
		C180.4,31.9,132.2-1,82.8-1z"/>
</g>
<g>
	<path class="st12" d="M527,110c4.9,1.5,8.9,0.9,13.8,0.2c2.4-0.4,2.2-0.5,3.5,2c0.8,1.6,1.4,3.5,2.1,5.1c1.2,2.8,2.5,5.6,3.8,8.4
		c2.6,5.6,5.5,11,8.5,16.4c0.7,1.3,5.1,7.2,4.5,8.5c-0.4,0.8-7.1,0.2-7.8,0.2c-11.3-0.2-22.6-2.8-33.3-7.5
		c-10.5-4.6-19.4-11.5-28.5-19.1c1.5-1.7,2.3-4.2,2.1-6.7c7.9,2.4,15.9,0.5,23.2-3.1c2.6-1.3,5.3-2.7,7.8-4.5
		C526.9,110,527,110,527,110z"/>
	<path class="st12" d="M495.1,110.2c0.7-0.6,1.6-1.1,2.4-1.5c0.2-0.1,0.2-0.6-0.1-0.6c-1.3,0.3-2.5,1.1-3.4,2.2
		c-0.2,0.2-0.7,0.7-1,1.2c-0.3-0.3-0.6-0.6-0.9-0.8c1.2-8.6-1.6-17.1-2.3-25.6c-0.8-9.7,1.7-19.3,7.4-26.4
		c6.7-8.4,18.9-12.4,24.5,0.3c1.4,3.1,2.2,6.4,3.5,9.4c-0.1,0.3,0,0.7,0.4,0.8c1,2.2,2.1,4.2,3.9,6c0.5,0.5,1.2-0.4,0.6-0.9
		c-1.3-1.3-2.3-2.9-3.1-4.6c5.7,1.8,10.4,7,11.9,13.7c1.8,8.1-1.9,15.8-6.9,20.9c-9.3,9.4-23.6,15.1-36.1,12.5
		c-0.1-0.5-0.2-1.1-0.4-1.6c-0.1-0.4-0.3-0.8-0.5-1.2c2.4-1.1,4.7-0.8,7.2,0.3c0.4,0.2,0.5-0.4,0.2-0.6c-2.4-1.6-5.4-1.5-7.8-0.2
		c-0.3-0.5-0.6-1-1-1.4c0.2-0.3,0.3-0.6,0.4-0.7C494.3,110.9,494.7,110.5,495.1,110.2z"/>
	<path class="st13" d="M483.4,116.4c0.1-0.8,0.4-1.6,0.9-2.2c0.5-0.6,1.2-0.9,1.8-0.9c0.1,0.1,0.2,0.1,0.3,0
		c1.5,0.1,2.9,1.5,3.3,3.2c0.1,0.4,0.7,0.4,0.6-0.1c-0.2-1.6-1.5-3.4-3-4.1c3-2.8,6.8,0.8,7.4,4.9c0.5,3.1-0.9,6.2-3.4,7.4
		c-2.9,1.3-6.2-0.9-7.5-4c-0.1-0.3-0.2-0.5-0.3-0.8c0-0.1,0-0.3-0.1-0.4c-0.2-0.7-0.2-1.5-0.2-2.2
		C483.5,117,483.6,116.6,483.4,116.4z"/>
	<path class="st12" d="M491.2,125.8c3.5,11.7,4.7,23.9,2.2,35.9c-2.4,11.6-7.9,21.9-14.2,31.2c-0.7,1.1-3.1,5.7-4.1,5.8
		c-1.6,0.2-3.9-4.5-4.9-5.9c-2.8-4-5.8-7.9-9-11.6c-1.7-1.9-3.4-3.8-5.1-5.7c-1-1-5.8-4.7-5.9-5.9c-0.2-1.7,1.9-2.9,2.8-4.2
		c1.2-1.6,1.9-3.4,2.6-5.3c0-0.1,0-0.1,0-0.2c14.2-3.8,22.3-22.9,29.2-36c1.4,1.4,3.2,2.3,5,2.1C490.4,126.1,490.8,126,491.2,125.8z
		"/>
	<path class="st12" d="M457.1,158.3c-18,6.8-22.5-17-24.8-32.6c1.4,2.5,2.8,4.9,3.6,7.6c0.2,0.7,1.2,0.3,0.9-0.4
		c-2.3-7.1-7.5-12.4-9.5-19.6c-1.9-6.6,0.4-12.5,6.3-14.2c3.5-1,7.3-1.3,10.9-1.6c7.6-0.6,15.3-0.8,22.4,3.2
		c6.1,3.4,10.9,8.8,16,13.8c-0.2,0.5-0.4,1.1-0.5,1.6c-1.8-0.6-3.7-0.4-5.4,0.4c-0.3,0.1-0.1,0.6,0.2,0.5c1.7-0.6,3.4-0.6,5.2-0.1
		c-0.1,0.8,0,1.7,0.2,2.5c-3.6,0.9-6.8,3.8-8.8,7.1c-0.2,0.3,0.2,0.5,0.3,0.3c2.5-3.3,5.3-5,8.8-6.5c0.3,1,0.9,2,1.5,2.9
		C477.1,135.9,470.5,153.1,457.1,158.3z"/>
	<path class="st14" d="M565.2,150.7c0.2,0.4,0.1,0.9-0.4,1c-24.5,2.2-53.2-6.5-71.5-27c-0.4,0.4-0.9,0.7-1.4,0.9
		c4.6,12.7,5.1,26.9,1.8,39.8c-3.5,13.4-10.9,24.8-18.5,35.4c-0.2,0.3-0.6,0.3-0.8,0c-7.4-11.7-16-22.2-25.8-31.3
		c-0.2-0.2-0.3-0.7,0-0.9c2.8-2.1,4.8-4.8,6.2-8.2c-0.9,0.2-1.9,0.3-2.9,0.4c-15.8,0.9-19.3-22.8-20.5-36.6c-3-5-5.9-10.1-5.6-16.1
		c0.4-8,6-10,12-10.9c8.2-1.2,17.7-2.4,25.8,0.7c7.7,2.9,14.3,9.5,19.9,16c0.7-1.1,1.7-1.9,2.9-1.8c1.4-2.5,3.5-2.7,5.4-1.5
		c0.1-11.5-4.2-22.9-2.6-34.4c1.1-8.3,4.8-16,10.4-21.3c5.2-4.9,13.3-7.7,19.3-2.2c4.3,3.9,5.3,10.2,7.6,15.7
		c12.5,3.2,17.5,19.2,10.9,31.1c-2.3,4-5.5,7.2-9,9.8c5.2,1.4,10.2,1.1,15.2-1.1c0.3-0.1,0.6,0,0.7,0.3
		C549.8,123.2,556.9,137.4,565.2,150.7z M563.3,150.6c0.6-1.4-3.8-7.3-4.5-8.5c-3-5.3-5.8-10.8-8.5-16.4c-1.3-2.8-2.6-5.6-3.8-8.4
		c-0.7-1.6-1.3-3.6-2.1-5.1c-1.3-2.5-1.2-2.3-3.5-2c-4.9,0.7-8.9,1.3-13.8-0.2c-0.1,0-0.1-0.1-0.1-0.1c-2.5,1.7-5.2,3.2-7.8,4.5
		c-7.3,3.6-15.3,5.5-23.2,3.1c0.2,2.5-0.6,5.1-2.1,6.7c9,7.5,18,14.4,28.5,19.1c10.6,4.7,22,7.3,33.3,7.5
		C556.2,150.8,562.9,151.4,563.3,150.6z M531.9,104.3c5-5.1,8.7-12.9,6.9-20.9c-1.5-6.7-6.2-11.9-11.9-13.7c0.8,1.7,1.8,3.3,3.1,4.6
		c0.5,0.5-0.1,1.5-0.6,0.9c-1.7-1.7-2.9-3.8-3.9-6c-0.3-0.1-0.4-0.5-0.4-0.8c-1.2-3-2.1-6.3-3.5-9.4c-5.6-12.7-17.8-8.7-24.5-0.3
		c-5.7,7.1-8.1,16.7-7.4,26.4c0.7,8.6,3.5,17,2.3,25.6c0.3,0.2,0.6,0.5,0.9,0.8c0.3-0.5,0.8-1,1-1.2c0.9-1.1,2.1-1.9,3.4-2.2
		c0.3-0.1,0.4,0.4,0.1,0.6c-0.9,0.4-1.7,0.9-2.4,1.5c-0.4,0.4-0.8,0.8-1.2,1.2c-0.1,0.2-0.3,0.5-0.4,0.7c0.4,0.4,0.7,0.9,1,1.4
		c2.4-1.3,5.4-1.4,7.8,0.2c0.3,0.2,0.1,0.8-0.2,0.6c-2.5-1.1-4.8-1.4-7.2-0.3c0.2,0.4,0.4,0.8,0.5,1.2c0.2,0.5,0.3,1.1,0.4,1.6
		C508.3,119.4,522.6,113.8,531.9,104.3z M491.4,124.5c2.5-1.2,3.9-4.3,3.4-7.4c-0.6-4.1-4.4-7.6-7.4-4.9c1.5,0.7,2.8,2.5,3,4.1
		c0,0.5-0.5,0.5-0.6,0.1c-0.4-1.7-1.8-3.1-3.3-3.2c-0.1,0.1-0.2,0-0.3,0c-0.7,0-1.3,0.3-1.8,0.9c-0.5,0.6-0.8,1.3-0.9,2.2
		c0.2,0.2,0.1,0.5-0.1,0.7c0,0.7,0,1.5,0.2,2.2c0.1,0.1,0.1,0.3,0.1,0.4c0.1,0.3,0.2,0.6,0.3,0.8
		C485.2,123.7,488.6,125.9,491.4,124.5z M493.4,161.7c2.4-11.9,1.3-24.2-2.2-35.9c-0.4,0.1-0.8,0.2-1.2,0.3c-1.8,0.2-3.6-0.7-5-2.1
		c-6.8,13.1-14.9,32.2-29.2,36c0,0.1,0,0.1,0,0.2c-0.7,1.9-1.5,3.7-2.6,5.3c-0.9,1.3-3,2.5-2.8,4.2c0.2,1.2,4.9,4.9,5.9,5.9
		c1.7,1.8,3.4,3.7,5.1,5.7c3.2,3.7,6.2,7.6,9,11.6c1,1.4,3.2,6.1,4.9,5.9c1-0.1,3.3-4.7,4.1-5.8
		C485.5,183.6,491.1,173.3,493.4,161.7z M482.5,116c0.1-0.5,0.3-1.1,0.5-1.6c-5.1-4.9-10-10.3-16-13.8c-7.1-4-14.8-3.8-22.4-3.2
		c-3.6,0.3-7.4,0.6-10.9,1.6c-5.9,1.7-8.2,7.6-6.3,14.2c2,7.2,7.2,12.5,9.5,19.6c0.2,0.7-0.7,1.1-0.9,0.4c-0.9-2.6-2.2-5.1-3.6-7.6
		c2.3,15.6,6.8,39.4,24.8,32.6c13.5-5.1,20.1-22.4,27.2-35.1c-0.7-0.8-1.2-1.8-1.5-2.9c-3.4,1.5-6.3,3.3-8.8,6.5
		c-0.2,0.2-0.5-0.1-0.3-0.3c2-3.3,5.3-6.2,8.8-7.1c-0.2-0.8-0.2-1.7-0.2-2.5c-1.7-0.6-3.4-0.6-5.2,0.1c-0.3,0.1-0.4-0.4-0.2-0.5
		C478.8,115.6,480.6,115.5,482.5,116z"/>
</g>
</svg>
